# xmcd CD database file
#
# Track frame offsets:
#	182
#	15677
#	35500
#	46200
#	65125
#	85850
#	97675
#	123900
#	150800
#	168037
#	181300
#	201500
#	229600
#
# Disc length: 3371 seconds
#
# Revision: 0
# Processed by: cddbd v1.5.1PL0 Copyright (c) Steve Scherf et al.
# Submitted via: CDex 1.51
#
DISCID=950d290d
DTITLE=Varios Artistas - Nescafe - Bonka
DYEAR=1993
DGENRE=Salsa
TTITLE0=Vinícius de Moraes - A Felicidade
TTITLE1=Vinícius de Moraes - Tomara (Ojalá)
TTITLE2=Vinícius de Moraes - Garota De Ipanema
TTITLE3=Vinícius de Moraes - A Tonga Da Mironga Du Kabulete
TTITLE4=Osibisa - Kolomashie
TTITLE5=Miriam Makeba and The Skylarks - Kutheni Sithandwa
TTITLE6=Alí Farka Touré - Hawa Dolo
TTITLE7=Alí Farka Touré - Heygana
TTITLE8=Lisandro Meza - Tú Serás Mi Cumbia Y Yo Tu Mapale
TTITLE9=Lisandro Meza - Cumbia Pa' Oriente
TTITLE10=Joe Arroyo Y La Verdad - Yamulemao
TTITLE11=Joe Arroyo Y La Verdad - Rebellion
TTITLE12=John Scott - Into The Time Machine
EXTD=YEAR: 1993
EXTT0=
EXTT1=
EXTT2=
EXTT3=
EXTT4=
EXTT5=
EXTT6=
EXTT7=
EXTT8=
EXTT9=
EXTT10=
EXTT11=
EXTT12=
PLAYORDER=
